<?xml version="1.0" standalone="no"?>
<!DOCTYPE svg PUBLIC "-//W3C//DTD SVG 20010904//EN"
 "http://www.w3.org/TR/2001/REC-SVG-20010904/DTD/svg10.dtd">
<svg version="1.0" xmlns="http://www.w3.org/2000/svg"
 width="1254.000000pt" height="1254.000000pt" viewBox="0 0 1254.000000 1254.000000"
 preserveAspectRatio="xMidYMid meet">

<g transform="translate(0.000000,1254.000000) scale(0.100000,-0.100000)"
fill="#000000" stroke="none">
<path d="M0 6270 l0 -6270 6270 0 6270 0 0 6270 0 6270 -6270 0 -6270 0 0
-6270z m7823 2092 l38 -7 -313 -312 c-296 -295 -316 -312 -367 -327 -48 -14
-157 -16 -896 -16 l-842 0 -33 -22 c-54 -37 -85 -108 -85 -198 0 -80 13 -125
52 -178 48 -65 7 -62 826 -62 641 0 751 -2 798 -15 51 -15 67 -29 296 -262
254 -259 281 -294 304 -404 20 -93 -7 -214 -68 -302 -15 -22 -142 -148 -283
-280 -191 -180 -269 -247 -310 -266 l-55 -26 -1028 -3 c-667 -1 -1028 1 -1025
7 1 6 134 134 295 285 247 232 300 277 340 290 42 13 168 15 963 17 503 1 930
6 949 10 79 18 122 82 128 193 4 63 1 77 -24 125 -54 105 28 95 -871 101
l-787 5 -57 28 c-57 28 -122 95 -379 389 -126 144 -167 244 -156 382 13 159
42 201 355 530 262 275 291 298 383 314 56 10 1801 13 1852 4z m-3903 -3342
l0 -40 -196 0 c-115 0 -203 -4 -215 -10 -14 -8 -19 -21 -19 -49 0 -62 11 -65
199 -67 176 -1 194 -5 230 -50 26 -33 29 -120 6 -168 -30 -62 -48 -66 -294
-66 l-221 0 0 35 0 35 207 0 c237 0 243 2 243 75 0 24 -6 47 -12 53 -7 5 -89
12 -183 14 -138 3 -176 7 -203 22 -36 19 -62 67 -62 113 0 24 33 113 42 113 2
0 21 7 43 15 30 10 92 14 238 15 l197 0 0 -40z m902 -167 l3 -208 188 -3 187
-2 0 -35 0 -35 -230 0 -230 0 0 238 c0 131 3 242 7 245 3 4 21 7 39 7 l34 0 2
-207z m1673 -29 c77 -130 142 -240 143 -245 2 -5 -16 -9 -41 -9 l-44 0 -101
168 c-55 93 -106 180 -113 195 -7 15 -16 27 -20 27 -6 0 -102 -151 -213 -337
-30 -52 -32 -53 -79 -53 -55 0 -56 -5 19 110 41 64 153 245 206 334 25 42 31
46 65 45 l38 0 140 -235z m1403 194 l3 -38 -115 0 -116 0 0 -205 0 -205 -40 0
-40 0 0 205 0 205 -110 0 -110 0 0 40 0 40 263 -2 262 -3 3 -37z m1262 2 l0
-40 -230 0 -230 0 0 40 0 40 230 0 230 0 0 -40z m0 -205 l0 -35 -230 0 -230 0
0 35 0 35 230 0 230 0 0 -35z m0 -210 l0 -35 -230 0 -230 0 0 35 0 35 230 0
230 0 0 -35z"/>
</g>
</svg>
