<?xml version="1.0" encoding="UTF-8" standalone="no"?>
<svg
   version="1.0"
   width="1024.000000pt"
   height="1024.000000pt"
   viewBox="0 0 1024.000000 1024.000000"
   preserveAspectRatio="xMidYMid meet"
   id="svg8"
   sodipodi:docname="slate-svg-white.svg"
   xml:space="preserve"
   inkscape:version="1.4.3 (0d15f75042, 2025-12-25)"
   xmlns:inkscape="http://www.inkscape.org/namespaces/inkscape"
   xmlns:sodipodi="http://sodipodi.sourceforge.net/DTD/sodipodi-0.dtd"
   xmlns="http://www.w3.org/2000/svg"
   xmlns:svg="http://www.w3.org/2000/svg"><defs
     id="defs8"><inkscape:path-effect
       effect="bounding_box"
       linkedpath=""
       id="path-effect8"
       is_visible="true"
       lpeversion="1.3"
       visualbounds="true" /></defs><sodipodi:namedview
     id="namedview8"
     pagecolor="#ffffff"
     bordercolor="#000000"
     borderopacity="0.25"
     inkscape:showpageshadow="2"
     inkscape:pageopacity="0.0"
     inkscape:pagecheckerboard="0"
     inkscape:deskcolor="#d1d1d1"
     inkscape:document-units="pt"
     inkscape:zoom="0.30871582"
     inkscape:cx="50.207987"
     inkscape:cy="1143.4464"
     inkscape:window-width="1920"
     inkscape:window-height="1052"
     inkscape:window-x="0"
     inkscape:window-y="0"
     inkscape:window-maximized="1"
     inkscape:current-layer="svg8" /><g
     transform="translate(0.000000,1024.000000) scale(0.100000,-0.100000)"
     fill="#000000"
     stroke="none"
     id="g8" /><path
     d="m 407.18607,127.16741 c -23.7991,8.06767 -39.77385,23.85224 -128.44997,129.43343 -55.74861,66.64593 -62.26891,79.97512 -62.26891,125.22421 0,49.80906 5.54227,60.33208 81.5038,149.42719 30.64543,35.42757 50.13983,62.21222 60.96484,71.17618 l 72.89481,1.02013 149.77355,1.11423 c 229.18866,2.1046 216.74424,-4.94159 236.35317,19.43131 7.82436,10.87382 4.89805,23.71315 4.89805,42.30385 0,24.90454 -6.19428,36.83065 -24.77714,48.75676 -10.75851,6.6646 -18.58288,7.01537 -265.37635,8.7692 l -254.29185,1.75385 -14.67067,9.47073 c -8.15039,5.26152 -46.94618,44.19678 -86.39402,86.99048 l -71.72333,77.16898 278.74296,-0.7015 278.74296,-1.0524 16.62679,-9.4707 c 12.06255,-6.6646 35.20963,-30.16604 80.52574,-80.67663 35.20963,-39.28603 67.81115,-76.81821 72.37537,-83.48281 18.90887,-27.71067 20.68396,-68.13346 6.6653,-100.05335 -6.84631,-14.73227 -95.66744,-124.78898 -120.4446,-147.93967 -6.52031,-6.31382 -18.25685,-15.08303 -25.7552,-19.29224 -13.69263,-8.06766 -13.69263,-8.06766 -216.47407,-9.82151 -198.21723,-1.75384 -203.77147,-13.47106 -212.8999,-20.83721 -9.46103,-14.14099 -18.77729,-31.84328 -18.69192,-49.32931 0.0854,-17.48604 5.44053,-44.58667 20.81015,-55.20242 0,0 1.28965,-0.83159 3.05395,-1.81761 1.83736,-1.02685 4.18949,-2.22118 6.13588,-2.81816 72.67845,-22.29143 235.09574,-18.79246 235.09574,-18.79246 244.15686,4.01538 229.59034,22.87145 255.34553,2.52689 12.06258,-9.8215 150.94502,-166.96561 152.90111,-173.27944 0.10166,-0.30076 -69.3453,-1.36642 -74.8773,-1.43931 -64.9442,-0.85572 -425.19218,-2.11837 -436.31447,1.43931 z"
     id="path1"
     sodipodi:nodetypes="ccscccccscccscccccccccccczssssccsc"
     style="stroke-width:0.338165;fill:#ffffff" /></svg>
